<svg data-v-423bf9ae="" xmlns="http://www.w3.org/2000/svg" viewBox="0 0 300 90" class="iconLeft"><g data-v-423bf9ae="" id="4ae3f585-c941-4e14-a5f4-9bc8c224cb34" fill="#000000" transform="matrix(5.376343700097136,0,0,5.376343700097136,111.07376703475369,-27.311824781327914)"><path d="M11.68 17.85L12.70 18.51Q12.31 18.94 11.82 18.94L11.82 18.94Q11.00 18.94 9.91 18.38Q8.82 17.82 8.03 17.06Q7.24 16.30 7.24 15.74L7.24 15.74L7.24 13.76Q6.83 13.87 6.50 13.87L6.50 13.87Q5.63 13.87 4.68 13.22L4.68 13.22Q4.28 13.76 3.72 14.02Q3.15 14.28 2.49 14.28L2.49 14.28Q2.25 14.28 2.13 14.27L2.13 14.27Q3.28 15.90 4.28 16.83Q5.28 17.75 5.92 17.75L5.92 17.75Q6.26 17.75 6.58 17.32L6.58 17.32L7.52 18.07Q7.32 18.30 7.01 18.43Q6.71 18.56 6.38 18.56L6.38 18.56Q5.56 18.56 4.16 17.32Q2.76 16.07 1.66 14.49Q0.56 12.91 0.56 12.05L0.56 12.05Q0.56 11.63 0.94 11.35Q1.32 11.07 1.81 11.07L1.81 11.07Q2.30 11.07 2.77 11.52Q3.23 11.96 3.50 12.68L3.50 12.68Q3.81 12.50 3.98 12.20Q4.16 11.90 4.16 11.55L4.16 11.55Q4.16 11.06 3.91 10.54Q3.65 10.01 3.21 9.56L3.21 9.56L-0.20 9.56L-0.20 8.44L2.87 8.44L3.91 9.56Q4.38 10.08 4.70 10.76Q5.01 11.44 5.03 12.05L5.03 12.05Q5.03 12.40 4.89 12.80L4.89 12.80Q5.28 13.05 5.84 13.05L5.84 13.05Q6.54 13.05 7.24 12.71L7.24 12.71L7.24 9.56L4.55 9.56L3.51 8.44L7.27 8.44L8.40 9.56L8.40 16.53Q8.40 16.84 8.85 17.26Q9.30 17.67 9.90 17.97Q10.51 18.27 10.93 18.27L10.93 18.27Q11.34 18.27 11.68 17.85L11.68 17.85ZM10.01 9.56L9.03 9.56L7.91 8.44L10.01 8.44L10.01 9.56ZM1.81 13.24Q2.53 13.24 3.16 12.91L3.16 12.91Q3.05 12.56 2.77 12.31Q2.48 12.05 2.18 12.05L2.18 12.05Q1.88 12.05 1.62 12.23Q1.36 12.40 1.36 12.63L1.36 12.63Q1.36 12.87 1.49 13.05Q1.62 13.24 1.81 13.24L1.81 13.24ZM9.63 9.56L9.63 8.44L11.28 8.44L12.40 9.56L12.40 16.53Q12.40 16.84 12.85 17.26Q13.30 17.67 13.91 17.97Q14.52 18.27 14.94 18.27L14.94 18.27Q15.13 18.27 15.34 18.16Q15.54 18.05 15.68 17.85L15.68 17.85L16.70 18.51Q16.31 18.94 15.82 18.94L15.82 18.94Q15.01 18.94 13.92 18.38Q12.84 17.82 12.05 17.06Q11.26 16.30 11.26 15.74L11.26 15.74L11.26 9.56L9.63 9.56ZM13.03 9.56L11.93 8.44L14.03 8.44L14.03 9.56L13.03 9.56ZM16.93 8.44L17.89 9.56Q18.52 10.28 18.84 10.97Q19.15 11.66 19.15 12.21L19.15 12.21Q19.15 12.84 18.75 13.32Q18.34 13.80 17.73 14.06Q17.12 14.32 16.53 14.32L16.53 14.32Q16.30 14.32 16.09 14.28L16.09 14.28Q17.53 16.13 18.81 17.19Q20.09 18.24 20.93 18.24L20.93 18.24Q21.20 18.24 21.41 18.12Q21.62 18.00 21.73 17.81L21.73 17.81L22.81 18.54Q22.61 18.76 22.31 18.89Q22.01 19.03 21.64 19.03L21.64 19.03Q20.38 19.03 18.41 17.30L18.41 17.30Q17.63 16.63 16.68 15.65Q15.74 14.67 15.06 13.69Q14.38 12.71 14.38 12.10L14.38 12.10Q14.38 11.66 14.77 11.34Q15.16 11.02 15.71 11.02L15.71 11.02Q16.25 11.02 16.74 11.50Q17.23 11.98 17.54 12.75L17.54 12.75Q17.89 12.57 18.11 12.26Q18.33 11.94 18.33 11.58L18.33 11.58Q18.33 11.09 18.02 10.54Q17.71 9.98 17.21 9.56L17.21 9.56L13.64 9.56L13.64 8.44L16.93 8.44ZM20.02 8.44L20.02 9.56L18.54 9.56L17.56 8.44L20.02 8.44ZM16.04 12.03Q15.72 12.03 15.45 12.23Q15.18 12.43 15.18 12.67L15.18 12.67Q15.18 12.91 15.34 13.10Q15.50 13.29 15.71 13.29L15.71 13.29Q16.55 13.29 17.16 12.95L17.16 12.95Q17.02 12.54 16.70 12.29Q16.38 12.03 16.04 12.03L16.04 12.03ZM30.18 8.12L30.18 8.53Q28.63 8.74 27.38 9.60Q26.14 10.46 25.43 11.77Q24.72 13.08 24.72 14.60L24.72 14.60Q24.72 15.88 25.21 16.62Q25.70 17.36 26.50 17.36L26.50 17.36Q27.29 17.36 28.01 16.28Q28.73 15.19 29.17 13.43Q29.61 11.68 29.61 9.77L29.61 9.77L30.93 9.25L30.93 16.59Q30.93 16.98 31.09 17.22Q31.26 17.46 31.56 17.46L31.56 17.46Q31.78 17.46 32.02 17.31Q32.26 17.16 32.38 16.95L32.38 16.95L32.58 17.14Q32.38 17.57 31.98 17.86Q31.57 18.16 31.05 18.16L31.05 18.16Q30.41 18.16 30.01 17.71Q29.61 17.26 29.61 16.44L29.61 16.44L29.61 13.76L29.54 13.76Q28.53 18.24 26.12 18.24L26.12 18.24Q24.88 18.24 24.12 17.37Q23.37 16.49 23.37 14.97L23.37 14.97Q23.37 13.22 24.29 11.68Q25.21 10.14 26.78 9.17Q28.35 8.20 30.18 8.12L30.18 8.12ZM35.07 7.87L35.07 17.82L33.77 18.28L33.77 8.36L35.07 7.87Z"></path></g><defs data-v-423bf9ae=""><linearGradient data-v-423bf9ae="" gradientTransform="rotate(25)" id="fdc86b6b-1b44-4abd-b983-721ec358a96e" x1="0%" y1="0%" x2="100%" y2="0%"><stop data-v-423bf9ae="" offset="0%" style="stop-color: rgb(8, 199, 214); stop-opacity: 1;"></stop><stop data-v-423bf9ae="" offset="100%" style="stop-color: rgb(2, 2, 62); stop-opacity: 1;"></stop></linearGradient></defs><g data-v-423bf9ae="" id="7c0841e7-46ad-4d78-9da8-c9046af5b95c" transform="matrix(1.05427253909636,0,0,1.05427253909636,-7.396375239499854,-7.397106185719579)" stroke="none" fill="url(#fdc86b6b-1b44-4abd-b983-721ec358a96e)"><path stroke-miterlimit="10" d="M49.995 21.037c-15.988 0-28.958 12.967-28.958 28.963s12.97 28.963 28.958 28.963c15.999 0 28.966-12.967 28.966-28.963S65.994 21.037 49.995 21.037zm0 56.195c-15.04 0-27.23-12.19-27.23-27.232s12.19-27.231 27.23-27.231c15.049 0 27.24 12.189 27.24 27.231s-12.191 27.232-27.24 27.232zm14.934-24.871a13.4 13.4 0 0 1-2.532 1.667 11.5 11.5 0 0 0-1.586-2.311A11.5 11.5 0 0 0 63.03 50a13.7 13.7 0 0 1 1.899 2.361zm-5.177 2.606a11.5 11.5 0 0 0 2.645-.938c.455.865.811 1.814 1.074 2.837-.981.389-1.964.653-2.931.792a11.2 11.2 0 0 0-.788-2.691zm.788 2.691c.16.963.212 1.981.147 3.032a13.3 13.3 0 0 1-3.029-.148c.142-.963.163-1.907.081-2.801.893.084 1.836.06 2.801-.083zm-5.573 2.092a11.1 11.1 0 0 0 2.691.792 13.3 13.3 0 0 1-.79 2.925 12.6 12.6 0 0 1-2.843-1.074c.439-.865.746-1.763.942-2.643zm-3.252 1.061a11.4 11.4 0 0 0 2.311 1.583 13 13 0 0 1-1.657 2.537 13.5 13.5 0 0 1-2.373-1.897 11.8 11.8 0 0 0 1.719-2.223zm-3.429 0c.455.772 1.03 1.522 1.709 2.222a13 13 0 0 1-2.363 1.897 13 13 0 0 1-1.656-2.537c.859-.453 1.632-.98 2.31-1.582zm-3.252-1.061c.194.88.5 1.778.941 2.644q-1.3.687-2.843 1.074a13.2 13.2 0 0 1-.792-2.925 11.2 11.2 0 0 0 2.694-.793zm-2.693.792c-.959.162-1.978.213-3.028.153a13.5 13.5 0 0 1 .147-3.037c.963.144 1.906.167 2.802.083-.09.894-.06 1.838.079 2.801zm-2.094-5.575a11 11 0 0 0-.787 2.691 13 13 0 0 1-2.932-.792 13 13 0 0 1 1.076-2.837c.866.435 1.764.744 2.643.938zm-1.059-3.25c-.6.672-1.132 1.445-1.584 2.311a13.5 13.5 0 0 1-2.534-1.662 13.6 13.6 0 0 1 1.901-2.367c.691.687 1.443 1.26 2.217 1.718zm0-3.434A11.6 11.6 0 0 0 36.971 50a13.6 13.6 0 0 1-1.901-2.361 13.2 13.2 0 0 1 2.534-1.667 11.4 11.4 0 0 0 1.584 2.311zm1.059-3.246c-.879.19-1.777.5-2.643.936a13 13 0 0 1-1.076-2.838 13 13 0 0 1 2.932-.792c.152.958.426 1.865.787 2.694zm-.787-2.695a13.7 13.7 0 0 1-.153-3.032 13.6 13.6 0 0 1 3.034.149 11.6 11.6 0 0 0-.079 2.8 12 12 0 0 0-2.802.083zm5.574-2.097a11.6 11.6 0 0 0-2.693-.787 13 13 0 0 1 .792-2.927c1.028.265 1.975.617 2.843 1.076a11.2 11.2 0 0 0-.942 2.638zm3.252-1.056a11.7 11.7 0 0 0-2.311-1.583 13 13 0 0 1 1.656-2.539 12.8 12.8 0 0 1 2.363 1.904 11.7 11.7 0 0 0-1.708 2.218zm3.429 0a11.4 11.4 0 0 0-1.72-2.217 13.6 13.6 0 0 1 2.363-1.904 12.7 12.7 0 0 1 1.667 2.539 11.6 11.6 0 0 0-2.31 1.582zm3.252 1.061a11.3 11.3 0 0 0-.941-2.643 13 13 0 0 1 2.838-1.076q.583 1.475.795 2.927c-.958.158-1.866.431-2.692.792zm2.691-.792a13.5 13.5 0 0 1 3.029-.149 13.5 13.5 0 0 1-.147 3.032 12 12 0 0 0-2.801-.083c.088-.892.061-1.833-.081-2.8zm2.094 5.579c.361-.828.634-1.736.788-2.695.967.139 1.949.404 2.931.792a13 13 0 0 1-1.074 2.838 11.3 11.3 0 0 0-2.645-.935zm1.059 3.246a11.5 11.5 0 0 0 1.586-2.311c.864.436 1.722.99 2.532 1.662A13.6 13.6 0 0 1 63.03 50a11.7 11.7 0 0 0-2.219-1.717zM58.235 50c0 4.546-3.687 8.231-8.24 8.231a8.231 8.231 0 0 1 0-16.461c4.554 0 8.24 3.682 8.24 8.23zm-8.24-22.436C37.604 27.564 27.56 37.607 27.56 50s10.044 22.44 22.435 22.44c12.396 0 22.443-10.047 22.443-22.44S62.391 27.564 49.995 27.564zm12.587 7.212c.334-.407.938-.438 1.363-.074.398.39.428.995.053 1.366-.376.363-.971.38-1.332.038-.377-.329-.415-.92-.084-1.33zm-3.012-2.054c.247-.454.849-.611 1.327-.321.47.297.604.9.299 1.33-.299.425-.877.55-1.3.288a.98.98 0 0 1-.326-1.297zm-3.335-1.464a.924.924 0 0 1 1.24-.555.92.92 0 0 1 .539 1.249.966.966 0 0 1-1.227.515.974.974 0 0 1-.552-1.209zm-2.431-1.602a.94.94 0 0 1 .765 1.13.98.98 0 0 1-1.11.737.977.977 0 0 1-.774-1.085c.064-.522.566-.888 1.119-.782zm-3.809-.356c.562.014.993.454.96.977-.027.523-.452.936-.96.921-.498.015-.924-.397-.949-.921-.035-.523.396-.963.949-.977zm-3.798.356c.55-.106 1.053.259 1.119.782a.98.98 0 0 1-.773 1.085.976.976 0 0 1-1.11-.737.94.94 0 0 1 .764-1.13zm-3.672 1.048a.925.925 0 0 1 1.24.555.976.976 0 0 1-.557 1.209.964.964 0 0 1-1.224-.515.92.92 0 0 1 .541-1.249zm-3.421 1.697c.472-.291 1.079-.133 1.324.321a.97.97 0 0 1-.324 1.296c-.421.263-1 .138-1.301-.288-.305-.429-.169-1.027.301-1.329zm-3.05 2.302c.426-.365 1.031-.333 1.365.074.328.409.291 1-.085 1.33-.361.342-.958.325-1.334-.038-.373-.371-.344-.977.054-1.366zm-2.573 2.825c.343-.44.953-.52 1.354-.175.393.331.469.924.16 1.318-.295.402-.878.5-1.313.204-.434-.287-.531-.899-.201-1.347zm-2.013 3.245a.944.944 0 0 1 1.305-.422c.444.26.621.825.396 1.269a.97.97 0 0 1-1.256.445c-.475-.204-.698-.792-.445-1.292zm-1.374 3.564c.144-.541.706-.828 1.193-.657a.99.99 0 0 1 .632 1.176.975.975 0 0 1-1.152.667.93.93 0 0 1-.673-1.186zm.351 2.89a.98.98 0 0 1 .841 1.042c-.043.495-.496.883-1.011.865-.534-.018-.926-.485-.886-1.042.055-.555.542-.944 1.056-.865zm-1.055 4.68c-.04-.555.352-1.023.886-1.038.515-.023.968.371 1.011.866.04.5-.316.958-.841 1.038-.515.079-1.002-.306-1.056-.866zm.704 3.756a.925.925 0 0 1 .673-1.181.97.97 0 0 1 1.152.661.985.985 0 0 1-.632 1.176.927.927 0 0 1-1.193-.656zm2.678 3.985c-.463.265-1.054.078-1.305-.421-.253-.496-.029-1.089.445-1.292a.975.975 0 0 1 1.256.445c.226.449.049 1.009-.396 1.268zm2.064 3.005c-.401.342-1.012.264-1.354-.181-.33-.45-.233-1.056.202-1.348.435-.291 1.018-.199 1.313.204.309.395.232.986-.161 1.325zm2.583 2.569c-.334.407-.939.444-1.365.076-.397-.386-.427-.997-.054-1.362.376-.367.973-.384 1.334-.042.376.328.413.926.085 1.328zm3.009 2.056c-.245.453-.848.617-1.324.319-.47-.296-.605-.898-.301-1.329.301-.421.88-.55 1.301-.287a.975.975 0 0 1 .324 1.297zm3.338 1.463a.934.934 0 0 1-1.24.562c-.528-.2-.76-.775-.54-1.254a.97.97 0 0 1 1.224-.515.975.975 0 0 1 .556 1.207zm2.431 1.602a.94.94 0 0 1-.765-1.13.98.98 0 0 1 1.11-.736c.491.093.839.57.773 1.083-.065.529-.568.889-1.118.783zm3.798.357c-.553-.014-.984-.453-.949-.973.025-.523.451-.939.949-.924.508-.015.933.401.96.924.033.52-.398.959-.96.973zm3.809-.357c-.553.105-1.055-.254-1.12-.784a.98.98 0 0 1 .774-1.083.983.983 0 0 1 1.11.736.94.94 0 0 1-.764 1.131zm3.672-1.041c-.514.211-1.086-.07-1.24-.562a.973.973 0 0 1 .553-1.208.974.974 0 0 1 1.227.515.93.93 0 0 1-.54 1.255zm3.421-1.704c-.474.297-1.08.134-1.327-.319a.98.98 0 0 1 .326-1.296c.423-.263 1.001-.135 1.3.287.305.43.171 1.026-.299 1.328zm-10.902-.148c-9.632 0-17.444-7.815-17.444-17.45 0-9.629 7.813-17.444 17.444-17.444 9.636 0 17.452 7.815 17.452 17.444 0 9.635-7.816 17.45-17.452 17.45zm13.95-2.152c-.426.369-1.029.332-1.363-.076-.331-.402-.293-1 .084-1.328.361-.343.956-.325 1.332.042.375.365.346.976-.053 1.362zm2.57-2.825c-.34.444-.948.523-1.351.181-.394-.339-.468-.93-.163-1.325.298-.403.882-.495 1.321-.204.432.292.526.898.193 1.348zm2.017-3.246c-.253.499-.842.686-1.304.421-.443-.259-.621-.819-.397-1.268a.976.976 0 0 1 1.257-.445c.475.203.696.792.444 1.292zm1.375-3.564c-.146.542-.706.828-1.195.657a.983.983 0 0 1-.631-1.176.97.97 0 0 1 1.153-.661c.51.11.833.647.673 1.18zm-.353-2.89a.98.98 0 0 1-.839-1.038c.042-.495.495-.889 1.011-.866.531.014.926.483.883 1.038-.051.56-.542.945-1.055.866zm1.054-4.681c.043.557-.352 1.024-.883 1.042-.516.018-.969-.37-1.011-.865a.98.98 0 0 1 .839-1.042c.514-.079 1.005.31 1.055.865zm-.701-3.755a.933.933 0 0 1-.673 1.186.98.98 0 0 1-1.153-.667.987.987 0 0 1 .631-1.176c.489-.171 1.049.116 1.195.657zm-2.678-3.986c.462-.259 1.051-.079 1.304.422.252.5.03 1.088-.444 1.292a.976.976 0 0 1-1.257-.445c-.225-.444-.047-1.009.397-1.269zm-.907-1.476c-.439.296-1.023.199-1.321-.204-.311-.394-.23-.987.163-1.318.402-.344 1.011-.265 1.351.175.333.448.239 1.06-.193 1.347zm8.606 10.56c.219 0 .392.171.392.385V50q-.001.815-.054 1.616a.386.386 0 0 1-.384.361c-.009 0-.02 0-.024-.005a.38.38 0 0 1-.357-.407c.029-.518.048-1.038.048-1.565v-.181a.38.38 0 0 1 .379-.384zm-.472-4.319a.38.38 0 0 1 .447.315c.101.522.175 1.055.234 1.598a.375.375 0 0 1-.332.421q-.022.002-.049.003a.39.39 0 0 1-.379-.336 29 29 0 0 0-.229-1.552.38.38 0 0 1 .308-.449zm-43.87-10.764a.387.387 0 0 1-.052-.542c.353-.413.704-.82 1.075-1.208a.38.38 0 0 1 .542-.014.387.387 0 0 1 .017.541q-.54.571-1.04 1.171a.37.37 0 0 1-.298.139.38.38 0 0 1-.244-.087zm6.513-5.69a.383.383 0 0 1 .139-.528q.695-.405 1.418-.769a.385.385 0 0 1 .513.167.39.39 0 0 1-.172.52c-.468.231-.925.485-1.374.744a.383.383 0 0 1-.524-.134zm36.7 29.991c-.185.505-.383 1.01-.604 1.5a.38.38 0 0 1-.351.23.386.386 0 0 1-.351-.536q.313-.72.585-1.459a.383.383 0 0 1 .49-.23.385.385 0 0 1 .231.495zm1.139-4.26a25 25 0 0 1-.334 1.58.375.375 0 0 1-.458.286.387.387 0 0 1-.286-.467q.186-.756.318-1.532c.038-.208.227-.371.444-.311a.38.38 0 0 1 .316.444zM33.595 31.226a.385.385 0 0 1 .043-.545c.415-.347.831-.686 1.267-1.006a.39.39 0 0 1 .537.079.39.39 0 0 1-.078.537 25 25 0 0 0-1.229.978.4.4 0 0 1-.251.087.39.39 0 0 1-.289-.13zm24.43-4.842a.39.39 0 0 1 .492-.227q.763.272 1.509.593c.188.083.282.31.199.503a.39.39 0 0 1-.357.232.4.4 0 0 1-.149-.033 23 23 0 0 0-1.459-.574.39.39 0 0 1-.235-.494zm4.121 2.282a.386.386 0 0 1-.142-.527.375.375 0 0 1 .521-.139c.469.263.933.546 1.381.842a.38.38 0 0 1 .105.533.371.371 0 0 1-.526.112 25 25 0 0 0-1.339-.821zm-21.16-1.926a.39.39 0 0 1 .232-.49 28 28 0 0 1 1.532-.515.39.39 0 0 1 .479.255.387.387 0 0 1-.261.481q-.75.23-1.487.495a.3.3 0 0 1-.134.024.39.39 0 0 1-.361-.25zm24.679 4.357a.38.38 0 0 1-.053-.542.38.38 0 0 1 .54-.052c.414.344.825.705 1.204 1.075a.377.377 0 0 1 .022.537.37.37 0 0 1-.28.125.39.39 0 0 1-.263-.105 23 23 0 0 0-1.17-1.038zm-20.503-5.561a.385.385 0 0 1 .306-.448q.794-.147 1.603-.237a.377.377 0 0 1 .421.338.377.377 0 0 1-.335.426c-.52.056-1.039.135-1.548.228-.027.009-.049.009-.07.009a.38.38 0 0 1-.377-.316zm4.317-.467c0-.209.171-.385.385-.385h.131q.744 0 1.479.041a.393.393 0 0 1 .362.408.39.39 0 0 1-.385.362h-.025a23 23 0 0 0-1.432-.042h-.131a.383.383 0 0 1-.384-.384zm4.33.286a.38.38 0 0 1 .443-.313 22 22 0 0 1 1.586.319.38.38 0 0 1 .279.463.374.374 0 0 1-.369.296.3.3 0 0 1-.087-.014 29 29 0 0 0-1.539-.307.385.385 0 0 1-.313-.444zm17.369 12.233a.386.386 0 0 1 .14-.528.373.373 0 0 1 .521.134c.275.462.532.934.779 1.421a.38.38 0 0 1-.177.513.4.4 0 0 1-.172.042.4.4 0 0 1-.343-.212 23 23 0 0 0-.748-1.37zM58.92 73.292a.38.38 0 0 1-.228.491c-.501.185-1.015.357-1.532.509a.38.38 0 0 1-.477-.263.383.383 0 0 1 .26-.476q.756-.224 1.485-.486a.374.374 0 0 1 .492.225zM46.1 74.63a.384.384 0 0 1-.382.319q-.03.001-.064-.004a29 29 0 0 1-1.581-.325.383.383 0 0 1-.283-.463.38.38 0 0 1 .463-.287c.504.12 1.019.226 1.532.319a.383.383 0 0 1 .315.441zm8.646-.145a.38.38 0 0 1-.313.442q-.788.138-1.596.23h-.039a.377.377 0 0 1-.383-.339.386.386 0 0 1 .336-.424 25 25 0 0 0 1.555-.223c.215-.046.404.103.44.314zm-16.972-3.193a.39.39 0 0 1 .145.528.397.397 0 0 1-.532.139 30 30 0 0 1-1.372-.852.383.383 0 0 1-.106-.533.386.386 0 0 1 .533-.105q.654.433 1.332.823zm4.107 2.291a.38.38 0 0 1-.362.255.3.3 0 0 1-.128-.023 30 30 0 0 1-1.499-.597.384.384 0 0 1-.199-.505c.083-.199.309-.282.504-.199.478.208.964.397 1.456.579.201.07.304.293.228.49zm20.942-2.192a.386.386 0 0 1-.141.526 25 25 0 0 1-1.427.764.386.386 0 0 1-.509-.176.384.384 0 0 1 .174-.515q.706-.345 1.378-.74a.384.384 0 0 1 .525.141zm6.53-5.672a.384.384 0 0 1 .052.545c-.346.408-.708.811-1.076 1.199a.37.37 0 0 1-.28.121.37.37 0 0 1-.263-.106.383.383 0 0 1-.015-.542 24 24 0 0 0 1.049-1.167.373.373 0 0 1 .533-.05zm2.441-3.597c.18.11.247.342.143.526q-.411.703-.854 1.371a.4.4 0 0 1-.326.176.4.4 0 0 1-.212-.064.387.387 0 0 1-.105-.533c.295-.44.569-.88.831-1.333a.383.383 0 0 1 .523-.143zm-5.461 6.716a.38.38 0 0 1-.044.542q-.616.52-1.268 1a.385.385 0 0 1-.537-.076.387.387 0 0 1 .082-.539c.415-.31.83-.633 1.226-.972a.385.385 0 0 1 .541.045zm-37.556-6.5a.39.39 0 0 1-.142.528.37.37 0 0 1-.193.051.37.37 0 0 1-.331-.195 22 22 0 0 1-.767-1.416.383.383 0 0 1 .169-.518.39.39 0 0 1 .515.175c.235.472.484.927.749 1.375zm-3.705-11.907c-.22 0-.391-.125-.391-.333V50c0-.509.018-1.019.046-1.518a.4.4 0 0 1 .41-.365.386.386 0 0 1 .358.407c-.025.49-.047.98-.047 1.476.001.213-.17.431-.376.431zm9.194 18.417a.38.38 0 0 1 .056.536.4.4 0 0 1-.303.14.4.4 0 0 1-.245-.088 26 26 0 0 1-1.208-1.075.384.384 0 0 1 .529-.56c.379.362.768.708 1.171 1.047zm-8.098-27.409q.278-.77.598-1.504a.377.377 0 0 1 .502-.199.383.383 0 0 1 .204.504c-.209.477-.405.962-.578 1.454a.39.39 0 0 1-.363.26.4.4 0 0 1-.125-.023.383.383 0 0 1-.238-.492zm-.644 13.358q-.028.001-.069.003a.38.38 0 0 1-.374-.314 23 23 0 0 1-.23-1.602.376.376 0 0 1 .329-.421.37.37 0 0 1 .428.333c.062.524.14 1.037.227 1.551a.387.387 0 0 1-.311.45zm-.475-9.093c.09-.533.198-1.064.316-1.583.055-.205.259-.344.469-.288a.38.38 0 0 1 .282.463c-.12.51-.225 1.019-.313 1.537a.38.38 0 0 1-.376.32q-.035.001-.067-.004a.39.39 0 0 1-.311-.445zm6.189 20.129a.38.38 0 0 1-.046.538.38.38 0 0 1-.25.092.38.38 0 0 1-.294-.134 24 24 0 0 1-1.001-1.273.376.376 0 0 1 .082-.532.377.377 0 0 1 .531.079c.316.42.638.828.978 1.23zm-3.075-27.875a.386.386 0 0 1-.146-.523q.408-.71.849-1.375a.38.38 0 0 1 .534-.111.383.383 0 0 1 .112.528q-.437.659-.824 1.339a.384.384 0 0 1-.525.142zM26.46 56.986c.147.505.316.995.492 1.485a.387.387 0 0 1-.224.496.5.5 0 0 1-.133.019.38.38 0 0 1-.362-.25 31 31 0 0 1-.512-1.529.39.39 0 0 1 .26-.481.39.39 0 0 1 .479.26zm23.949 17.945c0 .213-.147.389-.365.389h-.049q-.78-.001-1.563-.05a.39.39 0 0 1-.361-.407c.011-.209.163-.394.409-.362.498.033 1.011.047 1.516.047.215-.001.413.174.413.383zm18.88-41.325c.347.407.685.828 1.006 1.264a.386.386 0 0 1-.074.538.42.42 0 0 1-.23.074.37.37 0 0 1-.306-.153 24 24 0 0 0-.978-1.222.387.387 0 0 1 .041-.547.39.39 0 0 1 .541.046zm4.228 9.325c-.152-.511-.321-1-.498-1.492a.38.38 0 0 1 .223-.492.385.385 0 0 1 .492.229c.187.499.361 1.014.52 1.526a.397.397 0 0 1-.257.483c-.041.015-.077.015-.116.015a.38.38 0 0 1-.364-.269zm19.164 9.462c-.048.7-.643 1.218-1.309 1.158-.675-.064-1.172-.64-1.13-1.288a1.235 1.235 0 0 1 1.264-1.157c.663.018 1.21.594 1.175 1.287zm-.539 4.765c-.121.69-.759 1.138-1.415 1.004-.659-.139-1.104-.768-.993-1.407a1.24 1.24 0 0 1 1.391-1.004c.666.087 1.157.722 1.017 1.407zm-1.064 4.676a1.184 1.184 0 0 1-1.52.833 1.24 1.24 0 0 1-.825-1.504c.178-.629.853-1.005 1.501-.843.657.162 1.037.843.844 1.514zm-1.573 4.528a1.216 1.216 0 0 1-1.622.652c-.62-.283-.881-.981-.64-1.588s.945-.907 1.584-.672c.63.242.936.96.678 1.608zm-2.084 4.319c-.344.602-1.103.815-1.683.468-.578-.343-.78-1.088-.458-1.653a1.235 1.235 0 0 1 1.639-.486c.592.301.843 1.064.502 1.671zm-2.861 2.342a1.19 1.19 0 0 1 .301 1.708c-.405.576-1.171.699-1.713.283-.529-.403-.655-1.162-.283-1.699.382-.527 1.136-.661 1.695-.292zm-2.796 3.723c.516.431.569 1.209.109 1.735a1.214 1.214 0 0 1-1.746.085 1.237 1.237 0 0 1-.077-1.709c.426-.5 1.194-.546 1.714-.111zm-3.201 3.384a1.21 1.21 0 0 1-.079 1.741c-.528.458-1.311.413-1.739-.111-.431-.515-.386-1.281.111-1.708a1.234 1.234 0 0 1 1.707.078zm-3.548 3.019c.414.542.288 1.305-.28 1.709a1.2 1.2 0 0 1-1.714-.293c-.363-.559-.231-1.319.298-1.699a1.25 1.25 0 0 1 1.696.283zm-3.868 2.592c.346.576.139 1.33-.469 1.675a1.21 1.21 0 0 1-1.672-.495 1.233 1.233 0 0 1 .491-1.638c.565-.329 1.307-.125 1.65.458zm-4.129 2.144a1.215 1.215 0 0 1-.655 1.617c-.648.258-1.369-.047-1.604-.681-.237-.63.065-1.339.67-1.58.6-.24 1.301.024 1.589.644zm-4.352 1.672a1.19 1.19 0 0 1-.836 1.522c-.663.19-1.346-.185-1.511-.847-.158-.643.209-1.324.842-1.504a1.254 1.254 0 0 1 1.505.829zm-4.505 1.166c.135.663-.316 1.297-1.001 1.417-.685.139-1.322-.352-1.412-1.014a1.254 1.254 0 0 1 1.004-1.394c.643-.115 1.273.334 1.409.991zm-4.611.649c.058.667-.462 1.255-1.155 1.31a1.22 1.22 0 0 1-1.286-1.181 1.227 1.227 0 0 1 1.152-1.263c.648-.048 1.226.457 1.289 1.134zm-4.661.128a1.215 1.215 0 0 1-1.285 1.181c-.693-.055-1.213-.643-1.152-1.31.062-.676.639-1.181 1.286-1.135a1.23 1.23 0 0 1 1.151 1.264zm-4.637-.374a1.196 1.196 0 0 1-1.413 1.014c-.684-.12-1.134-.754-1-1.417.135-.657.765-1.106 1.408-.991.64.13 1.092.718 1.005 1.394zm-4.569-.894c-.167.662-.849 1.037-1.513.847a1.193 1.193 0 0 1-.836-1.522 1.26 1.26 0 0 1 1.505-.829c.631.181 1.001.861.844 1.504zm-4.442-1.411c-.235.634-.953.939-1.604.681a1.21 1.21 0 0 1-.655-1.617c.288-.62.988-.884 1.59-.644.611.241.907.95.669 1.58zm-4.248-1.899a1.214 1.214 0 0 1-1.674.495c-.607-.345-.813-1.1-.466-1.675.344-.583 1.082-.787 1.647-.458.569.319.804 1.033.493 1.638zm-4.31-4.056c.526.38.662 1.14.297 1.699a1.2 1.2 0 0 1-1.713.293c-.571-.404-.697-1.167-.281-1.709a1.253 1.253 0 0 1 1.697-.283zm-3.54-2.814c.498.426.544 1.193.112 1.708-.429.524-1.207.57-1.733.111a1.206 1.206 0 0 1-.086-1.741 1.234 1.234 0 0 1 1.707-.078zm-3.193-3.195a1.237 1.237 0 0 1-.078 1.709 1.22 1.22 0 0 1-1.747-.079c-.457-.532-.406-1.311.112-1.741.52-.435 1.286-.389 1.713.111zm-2.815-3.542a1.26 1.26 0 0 1-.281 1.699c-.542.416-1.306.292-1.714-.283a1.194 1.194 0 0 1 .301-1.708 1.25 1.25 0 0 1 1.694.292zm-2.411-3.819c.322.564.118 1.31-.461 1.653-.576.347-1.334.134-1.678-.468-.349-.601-.1-1.37.497-1.671a1.237 1.237 0 0 1 1.642.486zm-2.607-2.482a1.21 1.21 0 0 1-1.615-.652c-.26-.648.046-1.366.678-1.607.632-.235 1.34.065 1.575.672a1.23 1.23 0 0 1-.638 1.587zm-1.674-4.347a1.19 1.19 0 0 1-1.521-.833c-.195-.671.186-1.352.842-1.515.65-.162 1.329.214 1.504.843a1.247 1.247 0 0 1-.825 1.505zm-1.17-4.505c-.656.134-1.292-.314-1.416-1.004a1.194 1.194 0 0 1 1.017-1.407 1.247 1.247 0 0 1 1.394 1.004c.113.639-.333 1.268-.995 1.407zm-.644-4.611c-.667.06-1.259-.458-1.31-1.158a1.226 1.226 0 0 1 1.176-1.287 1.23 1.23 0 0 1 1.265 1.157c.046.649-.453 1.224-1.131 1.288zm-1.31-5.945c.051-.7.643-1.212 1.31-1.154.678.061 1.177.64 1.131 1.288a1.23 1.23 0 0 1-1.265 1.154 1.224 1.224 0 0 1-1.176-1.288zm.538-4.764c.124-.69.76-1.134 1.416-1.004.661.139 1.107.769.994 1.412a1.254 1.254 0 0 1-1.394 1.004 1.2 1.2 0 0 1-1.016-1.412zm1.066-4.675a1.19 1.19 0 0 1 1.521-.833c.638.207.999.879.825 1.509-.175.625-.854 1-1.504.839-.657-.164-1.037-.845-.842-1.515zm1.579-4.529a1.21 1.21 0 0 1 1.615-.653c.62.282.883.982.638 1.589-.235.612-.943.907-1.575.671s-.938-.954-.678-1.607zm2.083-4.32c.344-.601 1.102-.811 1.678-.468.579.347.783 1.088.461 1.653a1.24 1.24 0 0 1-1.642.491 1.21 1.21 0 0 1-.497-1.676zm2.855-2.342a1.195 1.195 0 0 1-.301-1.708c.408-.574 1.172-.699 1.714-.282.526.402.651 1.167.281 1.7-.383.526-1.138.655-1.694.29zm2.797-3.721c-.519-.432-.569-1.209-.112-1.738a1.214 1.214 0 0 1 1.747-.078c.491.468.503 1.218.078 1.708-.427.496-1.193.542-1.713.108zm3.199-3.385a1.21 1.21 0 0 1 .081-1.741c.531-.459 1.31-.408 1.738.111.432.519.386 1.287-.112 1.708a1.23 1.23 0 0 1-1.707-.078zm3.549-3.015c-.416-.541-.29-1.31.281-1.712a1.195 1.195 0 0 1 1.713.296c.365.556.229 1.314-.297 1.693a1.25 1.25 0 0 1-1.697-.277zm3.869-2.597c-.347-.573-.142-1.329.466-1.676a1.215 1.215 0 0 1 1.674.5 1.237 1.237 0 0 1-.492 1.64c-.566.323-1.305.12-1.648-.464zm4.128-2.139a1.21 1.21 0 0 1 .655-1.614c.645-.26 1.368.045 1.604.675.238.63-.063 1.338-.669 1.578a1.24 1.24 0 0 1-1.59-.639zm4.352-1.676a1.196 1.196 0 0 1 .836-1.524c.664-.189 1.346.187 1.513.849.157.643-.213 1.324-.844 1.503-.628.167-1.3-.19-1.505-.828zm4.505-1.167c-.134-.662.316-1.291 1-1.416.687-.14 1.323.351 1.413 1.013a1.254 1.254 0 0 1-1.005 1.395c-.643.115-1.273-.329-1.408-.992zm4.612-.647c-.061-.667.459-1.255 1.152-1.31a1.214 1.214 0 0 1 1.285 1.179 1.224 1.224 0 0 1-1.151 1.265c-.647.046-1.224-.458-1.286-1.134zm4.657-.131a1.22 1.22 0 0 1 1.286-1.179c.693.055 1.213.643 1.155 1.31-.063.676-.641 1.18-1.289 1.134a1.226 1.226 0 0 1-1.152-1.265zm4.64.376c.09-.662.728-1.153 1.412-1.013.685.125 1.136.754 1.001 1.416-.136.663-.767 1.106-1.409.992a1.256 1.256 0 0 1-1.004-1.395zm4.571.894c.165-.662.848-1.038 1.511-.849.678.187 1.047.88.836 1.524a1.254 1.254 0 0 1-1.505.828c-.633-.179-1-.86-.842-1.503zm4.439 1.412c.235-.63.953-.935 1.604-.681.65.26.928 1.014.655 1.62a1.24 1.24 0 0 1-1.59.639c-.609-.24-.906-.948-.669-1.578zm4.249 1.902a1.21 1.21 0 0 1 1.672-.5c.607.348.814 1.103.469 1.676-.344.584-1.086.787-1.649.464a1.23 1.23 0 0 1-.492-1.64zm4.311 4.05c-.529-.379-.661-1.137-.298-1.693a1.195 1.195 0 0 1 1.714-.296c.568.402.694 1.172.28 1.712-.4.528-1.164.652-1.696.277zm3.538 2.816c-.497-.421-.542-1.189-.111-1.708.429-.519 1.211-.57 1.734-.111.53.458.547 1.263.084 1.741a1.235 1.235 0 0 1-1.707.078zm3.194 3.199a1.235 1.235 0 0 1 .077-1.708 1.214 1.214 0 0 1 1.746.078c.46.529.406 1.306-.109 1.738-.52.434-1.288.388-1.714-.108zm2.814 3.538a1.26 1.26 0 0 1 .283-1.7c.542-.417 1.308-.292 1.713.282a1.19 1.19 0 0 1-.301 1.708c-.558.366-1.312.237-1.695-.29zm2.416 3.818c-.322-.565-.12-1.306.458-1.653.58-.343 1.339-.133 1.683.468.341.608.09 1.371-.502 1.676a1.234 1.234 0 0 1-1.639-.491zm2.603 2.482a1.217 1.217 0 0 1 1.622.653c.258.648-.048 1.371-.678 1.606-.639.236-1.343-.064-1.584-.671a1.235 1.235 0 0 1 .64-1.588zm1.676 4.348a1.19 1.19 0 0 1 1.52.833c.193.671-.188 1.351-.844 1.515-.648.162-1.323-.214-1.501-.839a1.246 1.246 0 0 1 .825-1.509zm1.168 4.505c.656-.13 1.294.314 1.415 1.004.141.686-.351 1.319-1.018 1.412a1.25 1.25 0 0 1-1.391-1.004c-.111-.644.334-1.273.994-1.412zm.645 4.615c.666-.059 1.261.454 1.309 1.154a1.223 1.223 0 0 1-1.175 1.288 1.235 1.235 0 0 1-1.264-1.154c-.042-.649.455-1.227 1.13-1.288zm-4.212 8.236c-.158 1.375-1.444 2.255-2.7 1.996-1.285-.264-2.098-1.408-1.975-2.575.165-1.167 1.239-2.078 2.555-2.014 1.278.057 2.307 1.228 2.12 2.593zm-5.44 10.358c-1.181-.579-1.686-1.889-1.268-2.99.453-1.084 1.712-1.7 2.973-1.311 1.222.375 1.932 1.768 1.397 3.042-.489 1.291-1.95 1.823-3.102 1.259zm-4.744 7.417c-.982-.843-1.181-2.27-.481-3.218.702-.95 2.094-1.213 3.199-.528 1.1.675 1.421 2.181.605 3.297-.82 1.106-2.334 1.292-3.323.449zm-3.098 6.398c-1.074.871-2.583.667-3.334-.402-.74-1.052-.583-2.482.328-3.228.906-.754 2.339-.647 3.231.278.912.94.825 2.463-.225 3.352zm-6.872 1.852c.655 1.134.187 2.583-1.061 3.181-1.245.588-2.661 0-3.122-1.214-.463-1.213.054-2.542 1.119-3.042 1.059-.514 2.425-.046 3.064 1.075zm-8.172 3.269c.344 1.249-.462 2.545-1.818 2.81-1.354.264-2.583-.671-2.727-1.953-.137-1.298.7-2.439 1.854-2.673 1.153-.217 2.356.561 2.691 1.816zm-8.725 1.12c.021 1.296-1.085 2.352-2.46 2.273s-2.335-1.277-2.155-2.565c.179-1.287 1.272-2.2 2.448-2.13 1.176.065 2.147 1.126 2.167 2.422zm-8.738-1.07c-.305 1.264-1.633 2.015-2.944 1.593-1.318-.421-1.947-1.828-1.448-3.022.497-1.203 1.776-1.812 2.896-1.455 1.122.356 1.802 1.629 1.496 2.884zm-8.189-3.212c-.601 1.134-2.092 1.55-3.251.801-1.17-.722-1.419-2.264-.65-3.283.79-1.056 2.176-1.301 3.176-.686.983.639 1.34 2.004.725 3.168zm-7.131-5.163c-.865.954-2.416.992-3.353-.022-.941-1.005-.82-2.533.182-3.343 1.021-.814 2.441-.735 3.252.12.797.87.806 2.277-.081 3.245zm-5.627-6.76c-1.094.718-2.575.361-3.247-.848-.656-1.217-.176-2.662 1.017-3.204 1.17-.527 2.544-.106 3.106.931.567 1.03.2 2.413-.876 3.121zm-6.711-9.583c-.329-1.344.496-2.616 1.79-2.842 1.27-.222 2.487.532 2.768 1.676.306 1.139-.415 2.388-1.621 2.806-1.245.42-2.579-.302-2.937-1.64zm1.27-7.001c-1.311.102-2.418-.934-2.441-2.314.023-1.375 1.131-2.416 2.441-2.315 1.275.102 2.287 1.139 2.27 2.315.018 1.18-.994 2.212-2.27 2.314zm3.288-10.457c-.28 1.138-1.498 1.893-2.768 1.671-1.294-.222-2.119-1.5-1.79-2.838.358-1.339 1.692-2.065 2.937-1.644 1.205.416 1.926 1.671 1.621 2.811zm-1.094-9.904c.672-1.208 2.153-1.564 3.247-.851 1.076.708 1.443 2.097.876 3.121-.563 1.037-1.937 1.458-3.106.93-1.193-.538-1.673-1.982-1.017-3.2zm5.521-7.588c.937-1.015 2.487-.977 3.353-.022.887.967.878 2.378.081 3.244-.811.856-2.231.941-3.252.121-1.002-.807-1.128-2.338-.182-3.343zm10.484-5.185c.615 1.162.259 2.527-.726 3.171-1 .617-2.386.371-3.176-.685-.769-1.024-.523-2.565.65-3.288 1.155-.749 2.651-.328 3.252.802zm3.797-1.778c-.499-1.194.13-2.607 1.442-3.024 1.317-.421 2.646.324 2.95 1.588.306 1.255-.374 2.53-1.497 2.884-1.119.362-2.398-.249-2.895-1.448zm8.515-2.214c-.18-1.287.78-2.481 2.155-2.563 1.375-.076 2.481.977 2.46 2.272-.021 1.297-.991 2.361-2.167 2.421-1.18.074-2.269-.842-2.448-2.13zm8.795-.021c.144-1.288 1.372-2.223 2.727-1.959 1.356.264 2.162 1.565 1.818 2.811-.335 1.259-1.538 2.033-2.696 1.815-1.154-.233-1.986-1.372-1.849-2.667zm8.534 2.151c.461-1.213 1.877-1.801 3.122-1.209 1.247.593 1.716 2.047 1.061 3.182-.639 1.121-2.005 1.583-3.063 1.068-1.066-.498-1.583-1.822-1.12-3.041zm7.721 4.223c.751-1.07 2.26-1.269 3.329-.403 1.055.895 1.142 2.412.23 3.352-.893.927-2.325 1.032-3.231.274-.916-.737-1.068-2.173-.328-3.223zm5.95 9.213c-.699-.95-.501-2.375.481-3.214.989-.846 2.504-.661 3.323.445.815 1.111.494 2.625-.605 3.301-1.105.682-2.502.417-3.199-.532zm5.226 4.204c1.152-.57 2.613-.032 3.103 1.254a2.27 2.27 0 0 1-1.397 3.046c-1.261.39-2.52-.227-2.973-1.315-.419-1.101.086-2.412 1.267-2.985zm5.44 10.352c.187 1.366-.842 2.537-2.12 2.593-1.315.064-2.39-.848-2.555-2.015-.123-1.167.689-2.31 1.975-2.574 1.256-.258 2.542.621 2.7 1.996z" clip-rule="evenodd"></path></g></svg>